<svg width="36" height="35" viewBox="0 0 36 35" fill="none" xmlns="http://www.w3.org/2000/svg">
<path d="M12.2344 27.4141C12.2344 27.6016 12.0938 27.7188 11.8125 27.7656C11.5781 27.7656 11.4609 27.6719 11.4609 27.4844C11.4609 27.2969 11.5781 27.2031 11.8125 27.2031C11.9531 27.2031 12.0469 27.2266 12.0938 27.2734C12.1875 27.3203 12.2344 27.3672 12.2344 27.4141ZM10.0547 27.1328C10.0078 27.1797 10.0078 27.25 10.0547 27.3438C10.1484 27.3906 10.2422 27.4375 10.3359 27.4844C10.4297 27.5312 10.5234 27.5312 10.6172 27.4844C10.7109 27.4375 10.7578 27.3672 10.7578 27.2734C10.8047 27.1328 10.7109 27.0391 10.4766 26.9922C10.2422 26.8984 10.1016 26.9453 10.0547 27.1328ZM13.1484 26.9922C12.9141 27.0391 12.7969 27.1328 12.7969 27.2734C12.8438 27.4141 12.8906 27.5078 12.9375 27.5547C13.0312 27.5547 13.125 27.5547 13.2188 27.5547C13.4531 27.4609 13.5469 27.3438 13.5 27.2031C13.5 27.0625 13.3828 26.9922 13.1484 26.9922ZM17.7891 0.0625C14.5547 0.0625 11.625 0.8125 9 2.3125C6.375 3.8125 4.3125 5.875 2.8125 8.5C1.3125 11.125 0.5625 14.0312 0.5625 17.2188C0.5625 21.1094 1.66406 24.6016 3.86719 27.6953C6.07031 30.7422 8.95312 32.8516 12.5156 34.0234C12.8906 34.1172 13.1719 34.0703 13.3594 33.8828C13.5938 33.6953 13.7109 33.4609 13.7109 33.1797L13.6406 28.8906L12.8672 28.9609C12.2578 29.0547 11.6719 29.0781 11.1094 29.0312C10.3125 28.9375 9.63281 28.7266 9.07031 28.3984C8.41406 28.0234 7.96875 27.4844 7.73438 26.7812L7.45312 26.2188C7.26562 25.7969 7.03125 25.4219 6.75 25.0938C6.42188 24.6719 6.09375 24.3672 5.76562 24.1797L5.41406 23.8984C5.17969 23.7109 5.0625 23.5469 5.0625 23.4062C5.10938 23.2188 5.39062 23.125 5.90625 23.125L6.39844 23.1953C6.77344 23.3359 7.125 23.5 7.45312 23.6875C7.92188 24.0156 8.29688 24.4375 8.57812 24.9531C9.23438 26.125 10.1719 26.7578 11.3906 26.8516C12.1406 26.9453 12.9141 26.8047 13.7109 26.4297C13.8516 25.3984 14.2266 24.6016 14.8359 24.0391C13.1484 23.8516 11.8828 23.6172 11.0391 23.3359C9.72656 22.8672 8.74219 22.1406 8.08594 21.1562C7.33594 19.9844 6.96094 18.3438 6.96094 16.2344C6.96094 15.3438 7.07812 14.6172 7.3125 14.0547C7.59375 13.4453 8.01562 12.7891 8.57812 12.0859C8.39062 11.6641 8.29688 11.125 8.29688 10.4688C8.20312 9.4375 8.36719 8.40625 8.78906 7.375C9.21094 7.23438 9.84375 7.32812 10.6875 7.65625C11.2969 7.89062 11.9766 8.21875 12.7266 8.64062L13.6406 9.27344C15.0469 8.85156 16.5 8.64062 18 8.64062C19.5469 8.64062 21.0469 8.85156 22.5 9.27344L23.4141 8.64062C24.1641 8.21875 24.8203 7.89062 25.3828 7.65625C26.2266 7.32812 26.8828 7.23438 27.3516 7.375C27.7266 8.40625 27.8906 9.4375 27.8438 10.4688C27.7969 11.125 27.6797 11.6875 27.4922 12.1562C28.1484 12.8594 28.5938 13.4453 28.8281 13.9141C29.1562 14.5703 29.3203 15.3438 29.3203 16.2344C29.3203 18.3438 28.9219 20.0078 28.125 21.2266C27.4219 22.1641 26.4141 22.8672 25.1016 23.3359C24.2578 23.6172 22.9688 23.8516 21.2344 24.0391C22.0312 24.6953 22.4297 25.7734 22.4297 27.2734V33.1797C22.4297 33.4609 22.5234 33.6953 22.7109 33.8828C22.9453 34.0703 23.25 34.1172 23.625 34.0234C27.1406 32.8516 29.9766 30.7422 32.1328 27.6953C34.3359 24.6016 35.4375 21.1094 35.4375 17.2188C35.4375 14.0312 34.6406 11.1016 33.0469 8.42969C31.5 5.85156 29.3672 3.8125 26.6484 2.3125C23.9297 0.8125 20.9766 0.0625 17.7891 0.0625ZM7.38281 24.3203C7.28906 24.4141 7.3125 24.5312 7.45312 24.6719C7.59375 24.8125 7.71094 24.8359 7.80469 24.7422C7.89844 24.6484 7.875 24.5312 7.73438 24.3906C7.59375 24.25 7.47656 24.2266 7.38281 24.3203ZM6.60938 23.7578C6.5625 23.8516 6.60938 23.9453 6.75 24.0391C6.9375 24.1328 7.05469 24.1328 7.10156 24.0391C7.14844 23.8984 7.10156 23.8047 6.96094 23.7578C6.82031 23.6641 6.70312 23.6641 6.60938 23.7578ZM8.92969 26.2188C8.88281 26.2656 8.85938 26.3359 8.85938 26.4297C8.85938 26.5234 8.90625 26.6172 9 26.7109C9.1875 26.8984 9.35156 26.9219 9.49219 26.7812C9.53906 26.7344 9.53906 26.6641 9.49219 26.5703C9.49219 26.4766 9.44531 26.4062 9.35156 26.3594C9.30469 26.2656 9.23438 26.2188 9.14062 26.2188C9.04688 26.1719 8.97656 26.1719 8.92969 26.2188ZM8.08594 25.2344C7.99219 25.2812 7.99219 25.4219 8.08594 25.6562C8.17969 25.7031 8.25 25.75 8.29688 25.7969C8.39062 25.8438 8.46094 25.8438 8.50781 25.7969C8.64844 25.7031 8.64844 25.5625 8.50781 25.375C8.46094 25.2812 8.39062 25.2344 8.29688 25.2344C8.25 25.1875 8.17969 25.1875 8.08594 25.2344Z" fill="white"/>
</svg>
